# xmcd CD database file
#
# Track frame offsets:
#	225
#	15822
#	26366
#	39400
#	54861
#	72300
#	86367
#	99972
#	120384
#	141021
#	156285
#	177578
#	193516
#	211750
#	222241
#	238989
#	257296
#
# Disc length: 3747 seconds
#
# Revision: 0
# Processed by: cddbd v1.5.2PL0 Copyright (c) Steve Scherf et al.
# Submitted via: CDex 1.70beta1
#
DISCID=d40ea011
DTITLE=Jeff Barnhart - Rags, Stomps and Songs
DYEAR=1999
DGENRE=Jazz
TTITLE0=Maple Leaf Rag
TTITLE1=Poor Jimmy Green
TTITLE2=Evergreen Rag
TTITLE3=After You Get What You Want
TTITLE4=Kansas City Stomp
TTITLE5=Swpsey Cake Walk
TTITLE6=The Poppin - A Ragtime Two Step
TTITLE7=Save The Bones For Henry Jones
TTITLE8=Willie The Weeper
TTITLE9=Steeplechase Rag
TTITLE10=Mr. Jelly Lord
TTITLE11=Elite Syncopations
TTITLE12=Hello My Baby
TTITLE13=Great Scott Rag
TTITLE14=Swipsey Stomp
TTITLE15=He's In The Jail House Now
TTITLE16=Fantasie a la Stickes de Choppes
EXTD=YEAR: 1999
EXTT0=
EXTT1=
EXTT2=
EXTT3=
EXTT4=
EXTT5=
EXTT6=
EXTT7=
EXTT8=
EXTT9=
EXTT10=
EXTT11=
EXTT12=
EXTT13=
EXTT14=
EXTT15=
EXTT16=
PLAYORDER=
